<?xml version="1.0" encoding="UTF-8" standalone="no"?>
<svg
   xmlns:dc="http://purl.org/dc/elements/1.1/"
   xmlns:cc="http://creativecommons.org/ns#"
   xmlns:rdf="http://www.w3.org/1999/02/22-rdf-syntax-ns#"
   xmlns:svg="http://www.w3.org/2000/svg"
   xmlns="http://www.w3.org/2000/svg"
   xmlns:sodipodi="http://sodipodi.sourceforge.net/DTD/sodipodi-0.dtd"
   xmlns:inkscape="http://www.inkscape.org/namespaces/inkscape"
   height="24"
   viewBox="0 0 24 24"
   width="24"
   version="1.1"
   id="svg3841"
   sodipodi:docname="email-24px_red.svg"
   inkscape:version="0.92.4 (fd57863, 2020-04-02)">
  <metadata
     id="metadata3847">
    <rdf:RDF>
      <cc:Work
         rdf:about="">
        <dc:format>image/svg+xml</dc:format>
        <dc:type
           rdf:resource="http://purl.org/dc/dcmitype/StillImage" />
        <dc:title></dc:title>
      </cc:Work>
    </rdf:RDF>
  </metadata>
  <defs
     id="defs3845" />
  <sodipodi:namedview
     pagecolor="#ffffff"
     bordercolor="#666666"
     borderopacity="1"
     objecttolerance="10"
     gridtolerance="10"
     guidetolerance="10"
     inkscape:pageopacity="0"
     inkscape:pageshadow="2"
     inkscape:window-width="1680"
     inkscape:window-height="995"
     id="namedview3843"
     showgrid="false"
     inkscape:zoom="33.916667"
     inkscape:cx="7.2235872"
     inkscape:cy="12"
     inkscape:window-x="0"
     inkscape:window-y="27"
     inkscape:window-maximized="1"
     inkscape:current-layer="svg3841" />
  <path
     d="M20 4H4c-1.1 0-1.99.9-1.99 2L2 18c0 1.1.9 2 2 2h16c1.1 0 2-.9 2-2V6c0-1.1-.9-2-2-2zm0 4l-8 5-8-5V6l8 5 8-5v2z"
     id="path3837"
     style="fill:#d40000" />
  <path
     d="M0 0h24v24H0z"
     fill="none"
     id="path3839" />
  <path
     style="fill:#ee0303;fill-opacity:0"
     d="M 3.538758,19.927225 C 3.1714397,19.836989 2.9038894,19.683321 2.6159426,19.397204 2.409681,19.192253 2.3378848,19.096205 2.2393197,18.893366 2.0089641,18.419312 2.0271528,19.011862 2.0283151,12.019259 2.0293313,5.9055162 2.0307845,5.7439941 2.0867432,5.5251977 2.2645152,4.8301158 2.741716,4.3302575 3.4584767,4.0883341 l 0.2063882,-0.069661 8.1670761,-0.00852 c 5.461425,-0.0057 8.243379,0.0015 8.397399,0.021727 0.785481,0.1031537 1.419385,0.6333837 1.676161,1.4020262 l 0.06895,0.2063882 0.0082,6.2506145 c 0.0073,5.616299 0.0034,6.274285 -0.03871,6.483864 -0.124651,0.620353 -0.52448,1.13693 -1.089832,1.408057 -0.451385,0.216472 0.257125,0.200604 -8.874693,0.198763 -7.7975493,-0.0016 -8.2372204,-0.0044 -8.440603,-0.05437 z M 16.040786,10.493658 20.013759,8.0099805 V 6.9929307 c 0,-0.6210804 -0.0107,-1.0104374 -0.02748,-1.000066 -0.01511,0.00934 -1.817546,1.1358547 -4.005405,2.5033638 L 12.002949,10.982609 8.0053843,8.4839549 C 5.8067236,7.1096951 4.0003107,5.9928097 3.9911333,6.0019871 c -0.00918,0.00918 -0.016686,0.4631245 -0.016686,1.0087714 v 0.9920851 l 3.987715,2.4960404 c 2.5069137,1.56916 4.0096117,2.492775 4.0466827,2.487247 0.03243,-0.0048 1.846806,-1.12645 4.031941,-2.492473 z"
     id="path3849"
     inkscape:connector-curvature="0" />
  <path
     style="fill:#ee0303;fill-opacity:0;stroke-width:0.02948403"
     d="M 3.5696908,19.938486 C 3.0143732,19.818058 2.4843698,19.400238 2.2285175,18.881192 2.0090794,18.43602 2.0219113,18.635317 2.012889,15.532187 2.008429,13.999754 2.015209,11.133907 2.027944,9.1636364 L 2.0511006,5.5813268 2.1291144,5.3650731 C 2.2427216,5.0501544 2.374226,4.8453019 2.6266898,4.5899692 2.8106223,4.4039467 2.8998028,4.3400557 3.1279183,4.2308776 3.2805362,4.1578333 3.4783784,4.0802056 3.5675676,4.0583715 c 0.1339677,-0.032796 1.6026412,-0.039698 8.4471744,-0.039698 7.949676,0 8.292769,0.00219 8.476658,0.054143 0.683804,0.1931854 1.241615,0.7509971 1.434801,1.4348004 0.05177,0.1832367 0.05414,0.4678648 0.05414,6.4864861 0,7.03538 0.01808,6.435602 -0.207561,6.886024 -0.264424,0.527843 -0.794821,0.942715 -1.355093,1.059941 -0.302405,0.06327 -16.5559795,0.06175 -16.8479992,-0.0016 z M 16.02754,10.501511 20.019656,8.0064619 V 6.9911714 c 0,-0.8042675 -0.0077,-1.0107341 -0.03686,-0.9933691 -0.02027,0.012057 -1.816699,1.1339699 -3.992063,2.4931406 -2.175364,1.3591704 -3.969846,2.4712191 -3.987737,2.4712191 -0.01789,0 -1.787187,-1.0968388 -3.9317695,-2.4374198 C 5.9266487,7.1841612 4.1288698,6.0617205 4.0761671,6.0304294 L 3.980344,5.9735366 v 1.0164543 1.0164542 l 3.987715,2.4939139 c 2.193243,1.371653 4.005636,2.494429 4.02754,2.495058 0.0219,6.28e-4 1.836277,-1.121629 4.031941,-2.493906 z"
     id="path4687"
     inkscape:connector-curvature="0" />
  <path
     style="fill:#ee0303;fill-opacity:0;stroke-width:0.02948403"
     d="M 3.5696908,19.938486 C 3.0143732,19.818058 2.4843698,19.400238 2.2285175,18.881192 2.0090794,18.43602 2.0219113,18.635317 2.012889,15.532187 2.008429,13.999754 2.015209,11.133907 2.027944,9.1636364 L 2.0511006,5.5813268 2.1291144,5.3650731 C 2.2427216,5.0501544 2.374226,4.8453019 2.6266898,4.5899692 2.8106223,4.4039467 2.8998028,4.3400557 3.1279183,4.2308776 3.2805362,4.1578333 3.4783784,4.0802056 3.5675676,4.0583715 c 0.1339677,-0.032796 1.6026412,-0.039698 8.4471744,-0.039698 7.949676,0 8.292769,0.00219 8.476658,0.054143 0.683804,0.1931854 1.241615,0.7509971 1.434801,1.4348004 0.05177,0.1832367 0.05414,0.4678648 0.05414,6.4864861 0,7.03538 0.01808,6.435602 -0.207561,6.886024 -0.264424,0.527843 -0.794821,0.942715 -1.355093,1.059941 -0.302405,0.06327 -16.5559795,0.06175 -16.8479992,-0.0016 z M 16.02754,10.501511 20.019656,8.0064619 V 6.9911714 c 0,-0.8042675 -0.0077,-1.0107341 -0.03686,-0.9933691 -0.02027,0.012057 -1.816699,1.1339699 -3.992063,2.4931406 -2.175364,1.3591704 -3.969846,2.4712191 -3.987737,2.4712191 -0.01789,0 -1.787187,-1.0968388 -3.9317695,-2.4374198 C 5.9266487,7.1841612 4.1288698,6.0617205 4.0761671,6.0304294 L 3.980344,5.9735366 v 1.0164543 1.0164542 l 3.987715,2.4939139 c 2.193243,1.371653 4.005636,2.494429 4.02754,2.495058 0.0219,6.28e-4 1.836277,-1.121629 4.031941,-2.493906 z"
     id="path4689"
     inkscape:connector-curvature="0" />
  <path
     style="fill:#ee0303;fill-opacity:0;stroke-width:0.02948403"
     d="M 3.5696908,19.938486 C 3.0143732,19.818058 2.4843698,19.400238 2.2285175,18.881192 2.0090794,18.43602 2.0219113,18.635317 2.012889,15.532187 2.008429,13.999754 2.015209,11.133907 2.027944,9.1636364 L 2.0511006,5.5813268 2.1291144,5.3650731 C 2.2427216,5.0501544 2.374226,4.8453019 2.6266898,4.5899692 2.8106223,4.4039467 2.8998028,4.3400557 3.1279183,4.2308776 3.2805362,4.1578333 3.4783784,4.0802056 3.5675676,4.0583715 c 0.1339677,-0.032796 1.6026412,-0.039698 8.4471744,-0.039698 7.949676,0 8.292769,0.00219 8.476658,0.054143 0.683804,0.1931854 1.241615,0.7509971 1.434801,1.4348004 0.05177,0.1832367 0.05414,0.4678648 0.05414,6.4864861 0,7.03538 0.01808,6.435602 -0.207561,6.886024 -0.264424,0.527843 -0.794821,0.942715 -1.355093,1.059941 -0.302405,0.06327 -16.5559795,0.06175 -16.8479992,-0.0016 z M 16.02754,10.501511 20.019656,8.0064619 V 6.9911714 c 0,-0.8042675 -0.0077,-1.0107341 -0.03686,-0.9933691 -0.02027,0.012057 -1.816699,1.1339699 -3.992063,2.4931406 -2.175364,1.3591704 -3.969846,2.4712191 -3.987737,2.4712191 -0.01789,0 -1.787187,-1.0968388 -3.9317695,-2.4374198 C 5.9266487,7.1841612 4.1288698,6.0617205 4.0761671,6.0304294 L 3.980344,5.9735366 v 1.0164543 1.0164542 l 3.987715,2.4939139 c 2.193243,1.371653 4.005636,2.494429 4.02754,2.495058 0.0219,6.28e-4 1.836277,-1.121629 4.031941,-2.493906 z"
     id="path4691"
     inkscape:connector-curvature="0" />
  <path
     style="fill:#ee0303;fill-opacity:0;stroke-width:0.02948403"
     d="M 3.5696908,19.938486 C 3.0085343,19.816792 2.4847247,19.403754 2.2255846,18.878624 2.0080259,18.437756 2.021643,18.676473 2.0128296,15.148894 c -0.00436,-1.743243 0.0025,-4.609091 0.015233,-6.36855 L 2.0512154,5.5813268 2.1291718,5.3650731 C 2.2433414,5.0483624 2.3753998,4.8423603 2.6240786,4.5930522 2.8691646,4.3473461 3.1763211,4.1666903 3.5085995,4.0728163 3.6924925,4.0208636 4.0360201,4.0186732 12,4.0186732 c 7.966474,0 8.30743,0.00218 8.490897,0.054184 0.550224,0.155974 1.006277,0.5213315 1.259633,1.0091296 0.251989,0.4851673 0.229814,-0.1817853 0.229814,6.9121162 0,7.031365 0.01792,6.431828 -0.205786,6.884521 -0.2629,0.532005 -0.784529,0.939672 -1.357713,1.061088 -0.300225,0.06359 -16.5537045,0.06241 -16.8471542,-0.0012 z M 16.024524,10.499702 20.019656,8.0028433 v -1.013481 c 0,-0.8028203 -0.0077,-1.0089247 -0.03686,-0.99156 -0.02027,0.012057 -1.816699,1.1339699 -3.992063,2.4931406 C 13.815374,9.8501133 12.019541,10.962162 12,10.962162 c -0.01954,0 -1.815374,-1.1120487 -3.990738,-2.4712191 C 5.8338976,7.1317722 4.0374693,6.0098589 4.017199,5.9978023 3.9880046,5.9804376 3.980344,6.186542 3.980344,6.9893623 v 1.0134813 l 3.987715,2.4949194 c 2.193243,1.372205 4.004279,2.495792 4.024524,2.496858 0.02025,0.0011 1.834619,-1.121647 4.031941,-2.494919 z"
     id="path4693"
     inkscape:connector-curvature="0" />
  <path
     style="fill:#ee0303;fill-opacity:0;stroke-width:0.02948403"
     d="M 3.5696908,19.938486 C 3.0085343,19.816792 2.4847247,19.403754 2.2255846,18.878624 2.0080259,18.437756 2.021643,18.676473 2.0128296,15.148894 c -0.00436,-1.743243 0.0025,-4.609091 0.015233,-6.36855 L 2.0512154,5.5813268 2.1291718,5.3650731 C 2.2433414,5.0483624 2.3753998,4.8423603 2.6240786,4.5930522 2.8691646,4.3473461 3.1763211,4.1666903 3.5085995,4.0728163 3.6924925,4.0208636 4.0360201,4.0186732 12,4.0186732 c 7.966474,0 8.30743,0.00218 8.490897,0.054184 0.550224,0.155974 1.006277,0.5213315 1.259633,1.0091296 0.251989,0.4851673 0.229814,-0.1817853 0.229814,6.9121162 0,7.031365 0.01792,6.431828 -0.205786,6.884521 -0.2629,0.532005 -0.784529,0.939672 -1.357713,1.061088 -0.300225,0.06359 -16.5537045,0.06241 -16.8471542,-0.0012 z M 16.024524,10.499702 20.019656,8.0028433 v -1.013481 c 0,-0.8028203 -0.0077,-1.0089247 -0.03686,-0.99156 -0.02027,0.012057 -1.816699,1.1339699 -3.992063,2.4931406 C 13.815374,9.8501133 12.019541,10.962162 12,10.962162 c -0.01954,0 -1.815374,-1.1120487 -3.990738,-2.4712191 C 5.8338976,7.1317722 4.0374693,6.0098589 4.017199,5.9978023 3.9880046,5.9804376 3.980344,6.186542 3.980344,6.9893623 v 1.0134813 l 3.987715,2.4949194 c 2.193243,1.372205 4.004279,2.495792 4.024524,2.496858 0.02025,0.0011 1.834619,-1.121647 4.031941,-2.494919 z"
     id="path4695"
     inkscape:connector-curvature="0" />
  <path
     style="fill:#ee0303;fill-opacity:1;stroke-width:0.02948403"
     d="M 3.5696908,19.938486 C 3.0085343,19.816792 2.4847247,19.403754 2.2255846,18.878624 2.0080259,18.437756 2.021643,18.676473 2.0128296,15.148894 c -0.00436,-1.743243 0.0025,-4.609091 0.015233,-6.36855 L 2.0512154,5.5813268 2.1291718,5.3650731 C 2.2433414,5.0483624 2.3753998,4.8423603 2.6240786,4.5930522 2.8691646,4.3473461 3.1763211,4.1666903 3.5085995,4.0728163 3.6924925,4.0208636 4.0360201,4.0186732 12,4.0186732 c 7.966474,0 8.30743,0.00218 8.490897,0.054184 0.550224,0.155974 1.006277,0.5213315 1.259633,1.0091296 0.251989,0.4851673 0.229814,-0.1817853 0.229814,6.9121162 0,7.031365 0.01792,6.431828 -0.205786,6.884521 -0.2629,0.532005 -0.784529,0.939672 -1.357713,1.061088 -0.300225,0.06359 -16.5537045,0.06241 -16.8471542,-0.0012 z M 16.024524,10.499702 20.019656,8.0028433 v -1.013481 c 0,-0.8028203 -0.0077,-1.0089247 -0.03686,-0.99156 -0.02027,0.012057 -1.816699,1.1339699 -3.992063,2.4931406 C 13.815374,9.8501133 12.019541,10.962162 12,10.962162 c -0.01954,0 -1.815374,-1.1120487 -3.990738,-2.4712191 C 5.8338976,7.1317722 4.0374693,6.0098589 4.017199,5.9978023 3.9880046,5.9804376 3.980344,6.186542 3.980344,6.9893623 v 1.0134813 l 3.987715,2.4949194 c 2.193243,1.372205 4.004279,2.495792 4.024524,2.496858 0.02025,0.0011 1.834619,-1.121647 4.031941,-2.494919 z"
     id="path4697"
     inkscape:connector-curvature="0" />
  <path
     style="fill:#ee0303;fill-opacity:1;stroke-width:0.02948403"
     d="M 3.5696908,19.93796 C 3.0168884,19.819612 2.4780598,19.395161 2.2248924,18.878624 2.0102032,18.440594 2.023848,18.694467 2.0133395,14.942506 c -0.0052,-1.856757 0.00134,-4.729238 0.014532,-6.3832922 l 0.023987,-3.007371 0.095262,-0.2397559 C 2.3886792,4.7041313 2.8903653,4.2474774 3.5085995,4.0728163 3.6924925,4.0208636 4.0360201,4.0186732 12,4.0186732 c 7.96398,0 8.307507,0.00219 8.4914,0.054143 0.675451,0.1908255 1.25689,0.7672499 1.424417,1.4121317 0.06294,0.2422687 0.06453,0.4118089 0.06453,6.8777061 0,4.678209 -0.0076,5.878834 -0.0385,6.044226 -0.07793,0.417792 -0.385328,0.901772 -0.742828,1.169555 -0.214713,0.16083 -0.534741,0.311401 -0.768708,0.361672 -0.282323,0.06066 -16.5772479,0.06052 -16.8606182,-1.47e-4 z M 12.372814,12.774581 C 12.548847,12.666379 14.3414,11.548655 16.356265,10.29075 L 20.019656,8.0036491 V 7.0062472 c 0,-0.605282 -0.01093,-0.997402 -0.02781,-0.997402 -0.0153,0 -1.812419,1.1144963 -3.993607,2.4766585 -2.181188,1.3621621 -3.980512,2.4766583 -3.998499,2.4766583 -0.01799,0 -1.816683,-1.1144962 -3.9971009,-2.4766583 C 5.8222199,7.1233415 4.0252142,6.0088452 4.0092925,6.0088452 c -0.018371,0 -0.028948,0.3642861 -0.028948,0.9970036 V 8.0028522 L 6.8771499,9.813567 c 4.6159541,2.885308 5.1028091,3.185678 5.1402291,3.171319 0.01946,-0.0075 0.179401,-0.102103 0.355435,-0.210305 z"
     id="path4699"
     inkscape:connector-curvature="0" />
  <path
     style="fill:#ee0303;fill-opacity:1;stroke-width:0.02948403"
     d="M 3.5696908,19.93801 C 3.1768248,19.853799 2.7157337,19.568669 2.4616203,19.252803 2.295797,19.046682 2.1115272,18.673062 2.0589507,18.436364 2.026813,18.29168 2.0204681,17.117835 2.0241147,11.991446 2.0291045,4.9767409 2.0098266,5.5724108 2.2473124,5.0948403 2.479685,4.6275519 2.9641814,4.2307292 3.4969254,4.0713553 3.660997,4.0222722 4.1320028,4.019038 11.882064,4.0137792 c 5.344218,-0.00363 8.283365,0.00472 8.41769,0.023896 0.684688,0.097759 1.309303,0.6104239 1.568339,1.2872436 0.06777,0.1770849 0.07837,0.2612726 0.102805,0.8166045 0.04278,0.9723138 0.01301,12.1398947 -0.03285,12.3243247 -0.05429,0.218348 -0.24617,0.596154 -0.399668,0.786955 -0.254065,0.315805 -0.715009,0.600875 -1.108071,0.685281 -0.282602,0.06069 -16.5774921,0.06061 -16.8606182,-8.8e-5 z M 13.42316,12.119503 c 0.749694,-0.466949 2.540596,-1.585083 3.979782,-2.4847419 l 2.6167,-1.6357439 -4.44e-4,-0.958231 c -2.36e-4,-0.527027 -0.01074,-0.974427 -0.02331,-0.9942222 -0.02335,-0.036754 -0.132915,0.030582 -5.613156,3.4497513 -1.292201,0.8062157 -2.364079,1.4658467 -2.381951,1.4658467 -0.01787,0 -1.51467,-0.924914 -3.3262183,-2.0553643 C 6.8630114,7.776347 5.0763585,6.662013 4.70422,6.4304996 4.2206438,6.1296588 4.0209917,6.019978 4.0044258,6.0460606 c -0.012748,0.020072 -0.023382,0.467722 -0.02363,0.9947775 L 3.980344,7.9991213 6.7865466,9.7533688 c 4.6190374,2.8875092 5.1970284,3.2439692 5.2361214,3.2292332 0.02058,-0.0078 0.650797,-0.39615 1.400492,-0.863099 z"
     id="path4701"
     inkscape:connector-curvature="0" />
</svg>
